# xmcd
#
# Track frame offsets: 
#        150
#        20085
#        33272
#        43400
#        61090
#        74591
#        87019
#        96752
#        110711
#        122528
#        144912
#        155411
#        166141
#        186901
#        199751
#        216795
#        240292
#        264950
#        275363
#        288636
#        299693
#        315669
#
# Disc length: 4625 seconds
#
# Revision: 0
# Processed by: cddbd v1.5.2PL0 Copyright (c) Steve Scherf et al.
# Submitted via: ExactAudioCopy v1.0b4
#
DISCID=45120f16
DTITLE=Various Artist - A Different Kind of Blues [CD2]
DYEAR=2012
DGENRE=Blues
TTITLE0=Little Richard - Born on the Bayou
TTITLE1=Richard Berry and The Pharaohs - Have Love Will Travel
TTITLE2=Buddy Guy and Junior Wells - Messin' With the Kid
TTITLE3=The James Gang - Funk #49
TTITLE4=Gary Glitter - Rock and Roll Part 2
TTITLE5=John Hammond - Crosscut Saw
TTITLE6=R.L. Burnside - Skinny Woman
TTITLE7=Lowell Fulson - Tramp
TTITLE8=Levon and The Hawks - He Don't Love You (and He'll Break Your He
TTITLE8=art)
TTITLE9=The J. Geils Band - Serves You Right to Suffer
TTITLE10=Sam Samudio - Homework
TTITLE11=James Luther Dickinson - Dixie Fried
TTITLE12=Taj Mahal - Bank Robbery
TTITLE13=Funkadelic - Can you Get to That
TTITLE14=Johnny Guitar Watson - Gangster of Love
TTITLE15=Cold Blood - I Just Want to Make Love to You
TTITLE16=Blood, Sweat and Tears - I Love You More Than Ever
TTITLE17=Eric Quincy Tate - Stonehead Blues
TTITLE18=Otis Rush - Me
TTITLE19=Freddy King - Funky
TTITLE20=Fleetwood Mac - Rattlesnake Shake
TTITLE21=Gov’t Mule - She Said, She Said
EXTD=
EXTT0=
EXTT1=
EXTT2=
EXTT3=
EXTT4=
EXTT5=
EXTT6=
EXTT7=
EXTT8=
EXTT9=
EXTT10=
EXTT11=
EXTT12=
EXTT13=
EXTT14=
EXTT15=
EXTT16=
EXTT17=
EXTT18=
EXTT19=
EXTT20=
EXTT21=
PLAYORDER=
